<svg xmlns="http://www.w3.org/2000/svg" width="1050" height="680" viewBox="0 0 1050 680"><style>text{font-family:'IBM Plex Sans Thai','Segoe UI',Tahoma,sans-serif}</style><rect x="0" y="0" width="1050" height="680" rx="0" fill="#101827" stroke="#101827"/><rect x="0" y="0" width="1050" height="32" rx="0" fill="#E7EAEE" stroke="#E7EAEE"/><text x="18" y="22" font-size="13" fill="#263447" font-weight="400">Zuri Edge Device v0.3.0 — Control &amp; Zero-Trust Pair</text><text x="938" y="22" font-size="15" fill="#263447" font-weight="400">—    □    ×</text><rect x="0" y="32" width="1050" height="72" rx="0" fill="#1D2939" stroke="#344256"/><rect x="24" y="48" width="40" height="40" rx="10" fill="#E8820C" stroke="#E8820C"/><text x="36" y="76" font-size="24" fill="#101827" font-weight="700">Z</text><text x="80" y="66" font-size="19" fill="#FFFFFF" font-weight="650">Zuri Edge Device</text><text x="80" y="89" font-size="14" fill="#B5C3D5" font-weight="400">DESKTOP-VETATMQ · ธุรกิจตัวอย่าง</text><rect x="810" y="51" width="216" height="34" rx="8" fill="#263447" stroke="#344256"/><text x="826" y="74" font-size="14" fill="#F5BC79" font-weight="500">รอยืนยันการเชื่อมต่อ</text><text x="42" y="136" font-size="17" fill="#B5C3D5" font-weight="400">ภาพรวม</text><text x="218" y="136" font-size="17" fill="#FFBA66" font-weight="650">เชื่อมต่อ</text><rect x="200" y="148" width="152" height="3" rx="0" fill="#E8820C" stroke="#E8820C"/><text x="394" y="136" font-size="17" fill="#B5C3D5" font-weight="400">ตัวช่วย AI</text><text x="570" y="136" font-size="17" fill="#B5C3D5" font-weight="400">ตั้งค่า</text><path d="M24 152h1002" stroke="#344256"/><text x="32" y="193" font-size="27" fill="#FFFFFF" font-weight="650">ยืนยันการเชื่อมต่อ</text><text x="32" y="221" font-size="14" fill="#B5C3D5" font-weight="400">ตรวจรหัสให้ตรงกัน แล้วเลือกธุรกิจใน Zuri</text><rect x="32" y="245" width="610" height="326" rx="12" fill="#1D2939" stroke="#344256"/><text x="56" y="278" font-size="14" fill="#B5C3D5" font-weight="500">คำขอเชื่อมต่อเครื่องนี้</text><text x="56" y="332" font-size="36" fill="#FFBA66" font-weight="600">A B C 1 2 3</text><text x="56" y="368" font-size="14" fill="#B5C3D5" font-weight="400">รอการยืนยัน · เหลือเวลา 4 นาที</text><path d="M56 392h562" stroke="#344256"/><text x="56" y="430" font-size="20" fill="#FFFFFF" font-weight="600">ยืนยันด้วยเบราว์เซอร์</text><text x="56" y="462" font-size="14" fill="#B5C3D5" font-weight="400">ล็อกอิน Zuri แล้วกดยืนยันเครื่อง</text><rect x="56" y="495" width="255" height="44" rx="8" fill="#E8820C" stroke="#E8820C"/><text x="72" y="523" font-size="15" fill="#101827" font-weight="600">เปิดเบราว์เซอร์อีกครั้ง</text><rect x="662" y="245" width="356" height="326" rx="12" fill="#1D2939" stroke="#344256"/><text x="686" y="278" font-size="18" fill="#FFFFFF" font-weight="600">ใช้มือถือสแกน QR</text><rect x="726" y="298" width="228" height="228" rx="8" fill="#EFF1F3" stroke="#EFF1F3"/><text x="759" y="402" font-size="25" fill="#52627A" font-weight="600">พื้นที่ QR</text><text x="759" y="434" font-size="14" fill="#52627A" font-weight="400">ตัวอย่างในแบบร่าง</text><text x="686" y="552" font-size="14" fill="#B5C3D5" font-weight="400">สแกนด้วยกล้อง แล้วล็อกอิน Zuri</text><rect x="0" y="608" width="1050" height="72" rx="0" fill="#1D2939" stroke="#344256"/><text x="32" y="650" font-size="14" fill="#B5C3D5" font-weight="400">สลับแท็บได้ คำขอยังรออยู่จนกว่าจะยกเลิกหรือหมดอายุ</text><rect x="838" y="622" width="180" height="44" rx="8" fill="#263447" stroke="#52627A"/><text x="854" y="650" font-size="15" fill="#E8EDF3" font-weight="600">ยกเลิกคำขอ</text></svg>