<svg xmlns="http://www.w3.org/2000/svg" width="1050" height="680" viewBox="0 0 1050 680"><style>text{font-family:'IBM Plex Sans Thai','Segoe UI',Tahoma,sans-serif}</style><rect x="0" y="0" width="1050" height="680" rx="0" fill="#101827" stroke="#101827"/><rect x="0" y="0" width="1050" height="32" rx="0" fill="#E7EAEE" stroke="#E7EAEE"/><text x="18" y="22" font-size="13" fill="#263447" font-weight="400">Zuri Edge Device v0.3.0 — Control &amp; Zero-Trust Pair</text><text x="938" y="22" font-size="15" fill="#263447" font-weight="400">—    □    ×</text><rect x="0" y="32" width="1050" height="72" rx="0" fill="#1D2939" stroke="#344256"/><rect x="24" y="48" width="40" height="40" rx="10" fill="#E8820C" stroke="#E8820C"/><text x="36" y="76" font-size="24" fill="#101827" font-weight="700">Z</text><text x="80" y="66" font-size="19" fill="#FFFFFF" font-weight="650">Zuri Edge Device</text><text x="80" y="89" font-size="14" fill="#B5C3D5" font-weight="400">DESKTOP-VETATMQ · ธุรกิจตัวอย่าง</text><rect x="810" y="51" width="216" height="34" rx="8" fill="#263447" stroke="#344256"/><text x="826" y="74" font-size="14" fill="#F5BC79" font-weight="500">ภาพร่าง · ข้อมูลตัวอย่าง</text><text x="42" y="136" font-size="17" fill="#B5C3D5" font-weight="400">ภาพรวม</text><text x="218" y="136" font-size="17" fill="#B5C3D5" font-weight="400">เชื่อมต่อ</text><text x="394" y="136" font-size="17" fill="#B5C3D5" font-weight="400">ตัวช่วย AI</text><text x="570" y="136" font-size="17" fill="#FFBA66" font-weight="650">ตั้งค่า</text><rect x="552" y="148" width="152" height="3" rx="0" fill="#E8820C" stroke="#E8820C"/><path d="M24 152h1002" stroke="#344256"/><text x="32" y="193" font-size="27" fill="#FFFFFF" font-weight="650">ตั้งค่า</text><text x="32" y="221" font-size="14" fill="#B5C3D5" font-weight="400">เลือกเรื่องที่ต้องการดูแล แต่ละรายการเปิดเป็นหน้าใหม่ในแท็บนี้</text><rect x="32" y="244" width="986" height="94" rx="12" fill="#1D2939" stroke="#344256"/><text x="56" y="279" font-size="20" fill="#FFFFFF" font-weight="600">การเชื่อมต่อขั้นสูง</text><text x="56" y="310" font-size="14" fill="#B5C3D5" font-weight="400">ที่อยู่ Zuri Server และนำเข้าไฟล์จับคู่แบบเดิม</text><text x="972" y="298" font-size="25" fill="#FFBA66" font-weight="400">→</text><rect x="32" y="356" width="986" height="94" rx="12" fill="#1D2939" stroke="#344256"/><text x="56" y="391" font-size="20" fill="#FFFFFF" font-weight="600">ตรวจโปรแกรมบนเครื่อง</text><text x="56" y="422" font-size="14" fill="#B5C3D5" font-weight="400">ตรวจว่า Codex หรือ Claude ติดตั้งอยู่หรือไม่</text><text x="972" y="410" font-size="25" fill="#FFBA66" font-weight="400">→</text><rect x="32" y="468" width="986" height="94" rx="12" fill="#1D2939" stroke="#344256"/><text x="56" y="503" font-size="20" fill="#FFFFFF" font-weight="600">เวอร์ชันและอัปเดต</text><text x="56" y="534" font-size="14" fill="#B5C3D5" font-weight="400">v0.3.0 · อัปเดตอัตโนมัติยังไม่พร้อม</text><text x="972" y="522" font-size="25" fill="#FFBA66" font-weight="400">→</text><rect x="0" y="608" width="1050" height="72" rx="0" fill="#1D2939" stroke="#344256"/><text x="32" y="650" font-size="14" fill="#B5C3D5" font-weight="400">กลับไปหน้าก่อนหน้าได้โดยไม่เสียการตั้งค่าที่ยังไม่ได้บันทึก</text></svg>