<svg xmlns="http://www.w3.org/2000/svg" width="1080" height="720" viewBox="0 0 1080 720">
<style>text{font-family:"IBM Plex Sans Thai","Segoe UI",Tahoma,sans-serif}</style>
<rect x="0" y="0" width="1080" height="720" rx="0" fill="#101827" stroke="none"/>
<rect x="0" y="0" width="1080" height="28" rx="0" fill="#e7eaee" stroke="none"/>
<text x="16" y="19" font-size="12" fill="#263447" font-weight="400" text-anchor="start">Zuri Edge Device v0.3.1 · Sidebar proposal</text>
<text x="1008" y="19" font-size="13" fill="#263447" font-weight="400" text-anchor="start">—  □  ×</text>
<rect x="0" y="28" width="80" height="692" rx="0" fill="#243047" stroke="none"/>
<rect x="20" y="44" width="40" height="40" rx="12" fill="#e8820c" stroke="none"/>
<text x="40" y="73" font-size="25" fill="#ffffff" font-weight="800" text-anchor="middle">Z</text>
<g transform="translate(28 126)" stroke="#b5c3d5" stroke-width="1.7" fill="none" stroke-linecap="round" stroke-linejoin="round"><rect x="3" y="3" width="7" height="9" rx="1"/><rect x="14" y="3" width="7" height="5" rx="1"/><rect x="14" y="12" width="7" height="9" rx="1"/><rect x="3" y="16" width="7" height="5" rx="1"/></g>
<text x="40" y="173" font-size="13" fill="#b5c3d5" font-weight="400" text-anchor="middle">ภาพรวม</text>
<rect x="8" y="198" width="64" height="68" rx="12" fill="#4b321c" stroke="none"/>
<rect x="0" y="207" width="3" height="46" rx="1" fill="#e8820c" stroke="none"/>
<g transform="translate(28 206)" stroke="#f8c66d" stroke-width="1.7" fill="none" stroke-linecap="round" stroke-linejoin="round"><path d="M8 3v5m8-5v5M6 8h12v3a6 6 0 0 1-12 0V8Zm6 9v5"/></g>
<text x="40" y="253" font-size="13" fill="#ffffff" font-weight="600" text-anchor="middle">เชื่อมต่อ</text>
<g transform="translate(28 286)" stroke="#b5c3d5" stroke-width="1.7" fill="none" stroke-linecap="round" stroke-linejoin="round"><rect x="3" y="7" width="18" height="13" rx="3"/><path d="M12 3v4M1 12h2m18 0h2M8 16h8"/><circle cx="8" cy="11" r="1"/><circle cx="16" cy="11" r="1"/></g>
<text x="40" y="333" font-size="13" fill="#b5c3d5" font-weight="400" text-anchor="middle">AI</text>
<g transform="translate(28 638)" stroke="#b5c3d5" stroke-width="1.7" fill="none" stroke-linecap="round" stroke-linejoin="round"><path d="m10 2 4 0 1 3 3-1 3 3-1 3 2 2-2 2 1 3-3 3-3-1-1 3h-4l-1-3-3 1-3-3 1-3-2-2 2-2-1-3 3-3 3 1Z"/><circle cx="12" cy="12" r="3"/></g>
<text x="40" y="685" font-size="13" fill="#b5c3d5" font-weight="400" text-anchor="middle">ตั้งค่า</text>
<rect x="80" y="28" width="1000" height="80" rx="0" fill="#1d2939" stroke="none"/>
<text x="104" y="57" font-size="18" fill="#e8edf3" font-weight="700" text-anchor="start">Zuri Edge Device</text>
<text x="104" y="80" font-size="13" fill="#a5b6cb" font-weight="400" text-anchor="start">DESKTOP-VETATMQ · ยังไม่ได้จับคู่</text>
<rect x="888" y="49" width="164" height="32" rx="16" fill="#46351f" stroke="#82622e"/>
<text x="970" y="70" font-size="13" fill="#f8c66d" font-weight="600" text-anchor="middle">ยังไม่เชื่อมต่อ</text>
<text x="108" y="148" font-size="28" fill="#e8edf3" font-weight="700" text-anchor="start">เชื่อมต่อ</text>
<text x="108" y="176" font-size="14" fill="#a5b6cb" font-weight="400" text-anchor="start">จับคู่เครื่องนี้กับธุรกิจผ่านเบราว์เซอร์หรือ QR</text>
<rect x="108" y="206" width="448" height="390" rx="14" fill="#1d2939" stroke="#344256"/>
<rect x="576" y="206" width="476" height="390" rx="14" fill="#1d2939" stroke="#344256"/>
<text x="132" y="242" font-size="18" fill="#e8edf3" font-weight="600" text-anchor="start">สถานะการจับคู่</text>
<text x="132" y="290" font-size="14" fill="#a5b6cb" font-weight="400" text-anchor="start">ธุรกิจ</text>
<text x="532" y="290" font-size="14" fill="#e8edf3" font-weight="600" text-anchor="end">ยังไม่ได้จับคู่</text>
<rect x="132" y="304" width="400" height="1" rx="0" fill="#344256" stroke="none"/>
<text x="132" y="336" font-size="14" fill="#a5b6cb" font-weight="400" text-anchor="start">เครื่อง</text>
<text x="532" y="336" font-size="14" fill="#e8edf3" font-weight="600" text-anchor="end">DESKTOP-VETATMQ</text>
<rect x="132" y="350" width="400" height="1" rx="0" fill="#344256" stroke="none"/>
<text x="132" y="382" font-size="14" fill="#a5b6cb" font-weight="400" text-anchor="start">Server</text>
<text x="532" y="382" font-size="14" fill="#e8edf3" font-weight="600" text-anchor="end">ยังไม่ได้ยืนยัน</text>
<rect x="132" y="396" width="400" height="1" rx="0" fill="#344256" stroke="none"/>
<text x="132" y="428" font-size="14" fill="#a5b6cb" font-weight="400" text-anchor="start">ผลยืนยันล่าสุด</text>
<text x="532" y="428" font-size="14" fill="#e8edf3" font-weight="600" text-anchor="end">—</text>
<rect x="132" y="442" width="400" height="1" rx="0" fill="#344256" stroke="none"/>
<rect x="132" y="476" width="190" height="44" rx="8" fill="#243247" stroke="#50617a"/>
<text x="227.0" y="504" font-size="14" fill="#a5b6cb" font-weight="600" text-anchor="middle">ตรวจการเชื่อมต่อ</text>
<rect x="334" y="476" width="198" height="44" rx="8" fill="#243247" stroke="#50617a"/>
<text x="433.0" y="504" font-size="14" fill="#e8edf3" font-weight="600" text-anchor="middle">อ่านสถานะอีกครั้ง</text>
<text x="600" y="242" font-size="18" fill="#e8edf3" font-weight="600" text-anchor="start">เริ่มเชื่อมต่อ Zuri</text>
<text x="600" y="286" font-size="15" fill="#e8edf3" font-weight="400" text-anchor="start">1. เปิดเบราว์เซอร์และล็อกอิน Zuri</text>
<text x="600" y="316" font-size="15" fill="#e8edf3" font-weight="400" text-anchor="start">2. เลือกธุรกิจ แล้วตรวจรหัสให้ตรงกัน</text>
<text x="600" y="353" font-size="14" fill="#a5b6cb" font-weight="400" text-anchor="start">ใช้มือถือสแกน QR ได้ในขั้นตอนยืนยัน</text>
<rect x="600" y="382" width="428" height="82" rx="8" fill="#172235" stroke="#344256"/>
<text x="616" y="410" font-size="13" fill="#c5d2e1" font-weight="400" text-anchor="start">https://unspirited-expostulatory-</text>
<text x="616" y="438" font-size="13" fill="#c5d2e1" font-weight="400" text-anchor="start">angila.ngrok-free.dev</text>
<rect x="600" y="488" width="178" height="44" rx="8" fill="#e8820c" stroke="#e8820c"/>
<text x="689.0" y="516" font-size="14" fill="#172235" font-weight="600" text-anchor="middle">เชื่อมต่อ Zuri</text>
<rect x="790" y="488" width="238" height="44" rx="8" fill="#243247" stroke="#50617a"/>
<text x="909.0" y="516" font-size="14" fill="#e8edf3" font-weight="600" text-anchor="middle">Server / import</text>
<rect x="80" y="646" width="1000" height="74" rx="0" fill="#1d2939" stroke="none"/>
<text x="108" y="674" font-size="13" fill="#a5b6cb" font-weight="400" text-anchor="start">แบบร่าง sidebar · ตัวอย่างสถานะยังไม่จับคู่</text>
<text x="108" y="697" font-size="13" fill="#a5b6cb" font-weight="400" text-anchor="start">ทุกเมนูใช้ฟีเจอร์เดิมของ Zuri Edge</text>
<rect x="902" y="660" width="150" height="44" rx="8" fill="#392a37" stroke="#6b3a4a"/>
<text x="977" y="688" font-size="14" fill="#aa7080" font-weight="600" text-anchor="middle">หยุดรับงาน</text>
</svg>